<?xml version="1.0" encoding="utf-8"?>
<!-- Generator: Adobe Illustrator 27.5.0, SVG Export Plug-In . SVG Version: 6.00 Build 0)  -->
<svg version="1.1" id="_x3C_Layer_x3E_" xmlns="http://www.w3.org/2000/svg" xmlns:xlink="http://www.w3.org/1999/xlink" x="0px"
	 y="0px" viewBox="0 0 2760 1840" style="enable-background:new 0 0 2760 1840;" xml:space="preserve">
<rect style="fill:#FFFFFF;" width="2760" height="1840"/>
<g>
	<g>
		<path style="fill:#EBF3FA;" d="M423.008,1636.479c0,0-395.285-298.282-94.795-580.985
			c319.924-300.988,36.483-687.392,470.763-843.295c469.52-168.554,590.323,128.317,786.884,82.731
			c392.047-90.921,889.333-46.152,806.59,395.49c-103.866,554.384,322.264,483.676,69.176,947.91L423.008,1636.479z"/>
	</g>
	<g style="opacity:0.5;">
		<g>
			<path style="fill:#AEC3FF;" d="M1191.365,733.644c0,0,133.135-9.3,121.742-112.523c0,0-16.136-67.693-52.301-100.202
				c0,0-33.834,129.956-57.625,122.166c-23.793-7.789,48.14-142.09,48.14-142.09s-85.763-105.687-131.28-122.008
				c0,0,13.83,149.007-7.313,135.6c-21.143-13.406-42.736-167.79-42.736-167.79s-103.807-74.714-153.854-15.923
				c-50.049,58.792-36.456,106.402-21.592,118.564c14.862,12.161,123.649,61.759,114.218,74.476
				c-9.433,12.718-93.049,0.742-127.811-31.103c0,0-7.392,132.128,54.235,154.33c61.626,22.202,97.102-5.696,134.937,8.716
				c37.834,14.414,59.878,36.828,36.987,38.047c-22.893,1.219-81.561-34.533-122.874-23.373s-72.472,15.346-23.006,52.412
				c49.466,37.065,151.072,76.409,190.603,43.556C1191.365,733.644,1191.365,733.644,1191.365,733.644z"/>
		</g>
		<g>
			<g>
				<path style="fill:#AEC3FF;" d="M958.158,376.444c0,0,249.845,234.583,233.207,357.2c0,0-23.925,47.081-20.268,115.755
					l-9.937,21.063c0,0,2.888-86.188-9.326-103.966C1151.835,766.497,1261.549,704.95,958.158,376.444z"/>
			</g>
			<g>
				<path style="fill:#AEC3FF;" d="M1171.098,849.399c0,0,12.901,90.508-52.677,162.342l-10.217-8.661
					c0,0,55.03-87.232,53.203-145.023C1159.581,800.267,1171.098,849.399,1171.098,849.399z"/>
			</g>
		</g>
	</g>
	<g>
		<g>
			<path style="fill:#AEC3FF;" d="M928.582,1216.771c0,0,54.716-163.924-74.446-201.34c0,0-88.99-14.171-145.779,13.03
				c0,0,138.786,104.761,117.697,129.382c-21.088,24.619-146.232-127.884-146.232-127.884s-168.892,50.363-210.934,96.764
				c0,0,185.156,57.142,158.656,75.813c-26.5,18.671-221.933-31.841-221.933-31.841s-140.75,87.274-95.146,176.244
				c45.604,88.97,109.302,96.25,131.207,84.478s135.06-117.43,145.615-99.853c10.554,17.577-45.131,111.72-100.435,137.567
				c0,0,154.465,74.193,211.512,11.425c57.049-62.769,41.208-119.021,77.167-157.17c35.96-38.147,73.687-53.442,63.823-25.445
				c-9.863,27.997-81.663,80.524-88.74,135.483c-7.078,54.96-17.479,94.316,51.344,53.452
				c68.82-40.863,166.155-142.999,146.39-206.553C928.582,1216.771,928.582,1216.771,928.582,1216.771z"/>
		</g>
		<g>
			<g>
				<path style="fill:#AEC3FF;" d="M385.782,1319.191c0,0,404.292-182.975,542.8-102.42c0,0,47.082,57.729,19.766,63.554
					C948.348,1280.325,928.955,1118.591,385.782,1319.191z"/>
			</g>
		</g>
	</g>
	<g>
		<g>
			<path style="fill:#D2E0FF;" d="M1807.907,649.25c0,0,57.455-243.522,251.285-270.297c0,0,37.712-4.632,50.27,36.895
				c12.558,41.527-62.425,41.827-108.772,58.53C1954.342,491.08,1846.287,561.892,1807.907,649.25z"/>
		</g>
		<g>
			<path style="fill:#D2E0FF;" d="M1803.503,603.677c0,0-20.151-201.716,121.297-273.306c0,0,27.673-13.486,48.236,15.021
				c20.563,28.507-36.805,48.495-67.913,73.505C1874.015,443.907,1809.889,526.634,1803.503,603.677z"/>
		</g>
	</g>
	<g>
		<g>
			<path style="fill:#AEC3FF;" d="M790.951,963.429c0,0-145.278-135.869-285.354-68.224c0,0-26.999,13.543-17.021,46.558
				c9.977,33.015,59.734,0.189,97.766-9.167C624.375,923.238,727.075,922.515,790.951,963.429z"/>
		</g>
		<g>
			<path style="fill:#AEC3FF;" d="M773.794,931.326c0,0-75.501-142.378-200.647-127.464c0,0-24.254,3.263-25.31,31.186
				c-1.055,27.924,45.717,15.887,77.321,18.739C656.762,856.64,735.637,883.148,773.794,931.326z"/>
		</g>
	</g>
	<g>
		<g>
			<path style="fill:#AEC3FF;" d="M1979.648,781.11c0,0-101.624-56.908-54.2-134.142c0,0,37.939-47.424,78.589-59.619
				c0,0-21.68,115.173,0,117.883c21.679,2.71,14.904-130.077,14.904-130.077s107.043-51.488,149.047-47.424
				c0,0-66.394,112.463-44.715,109.753c21.681-2.71,96.203-116.527,96.203-116.527s109.753-20.324,127.368,44.714
				c17.614,65.038-10.841,97.558-27.1,101.622c-16.26,4.065-120.593,2.711-117.882,16.26c2.709,13.551,73.168,35.23,112.461,23.034
				c0,0-43.358,107.044-100.267,101.623c-56.909-5.419-74.524-40.648-109.753-43.358c-35.229-2.711-60.974,6.775-43.359,16.259
				c17.615,9.486,77.233,3.108,105.688,27.299c28.455,24.19,51.489,39.096-1.354,49.935
				c-52.843,10.841-147.691,4.065-166.661-36.584C1979.648,781.11,1979.648,781.11,1979.648,781.11z"/>
		</g>
		<g>
			<g>
				<path style="fill:#AEC3FF;" d="M2296.71,585.995c0,0-284.543,92.139-317.062,195.115c0,0,1.354,46.069-27.1,98.913v20.325
					c0,0,29.809-69.103,46.068-78.589C1998.617,821.76,1934.934,732.333,2296.71,585.995z"/>
			</g>
			<g>
				<path style="fill:#AEC3FF;" d="M1952.549,880.023c0,0-43.882,66.636-18.865,147.75l11.289-3.031c0,0-10.959-89.343,12-134.277
					C1979.931,845.53,1952.549,880.023,1952.549,880.023z"/>
			</g>
		</g>
	</g>
	<g>
		<path style="fill:#A8D29F;" d="M987.152,1633.533l116.21,2.566c6.344-5.145-3.928-17.374-14.92-18.424
			c-4.773-0.466-10.842,0.401-17.783,1.708c-1.129-21.275-8.153-116.961-42.656-113.884c-38.794,3.441-0.929,42.05,9.519,64.644
			c7.738,16.734,15.762,40.665,19.421,51.956c-3.156,0.611-6.425,1.206-9.76,1.744c-4.781-15.861-22.697-69.259-47.036-66.709
			c-28.576,2.984-17.591,24.479,2.328,37.531c14.613,9.601,32.519,23.18,41.024,29.736c-7.353,1.033-15.016,1.672-22.768,1.319
			C1000.836,1624.81,990.989,1630.461,987.152,1633.533z"/>
	</g>
	<g>
		<path style="fill:#A8D29F;" d="M2340.559,1634.581H2207.2c-7.146-6.062,4.945-19.828,17.579-20.753
			c5.487-0.415,12.428,0.734,20.355,2.409c1.834-24.375,12.314-133.949,51.812-129.546c44.409,4.929,0,48.254-12.554,73.905
			c-9.301,18.998-19.111,46.244-23.594,59.102c3.605,0.782,7.338,1.548,11.15,2.249c5.887-18.072,27.789-78.866,55.641-75.325
			c32.701,4.147,19.558,28.522-3.621,42.99c-17.005,10.641-37.886,25.763-47.808,33.069c8.406,1.372,17.18,2.297,26.081,2.09
			C2325.085,1624.229,2336.236,1630.961,2340.559,1634.581z"/>
	</g>
	<g>
		<g>
			<path style="fill:#D2E0FF;" d="M2023.808,1315.814H758.846c-29.629,0-53.649-24.02-53.649-53.649V616.17
				c0-29.631,24.021-53.649,53.649-53.649h1264.962c29.63,0,53.649,24.019,53.649,53.649v645.995
				C2077.457,1291.795,2053.438,1315.814,2023.808,1315.814z"/>
		</g>
		<g>
			<path style="fill:#739AF0;" d="M2077.457,628.367H705.196v-34.597c0-17.26,13.991-31.25,31.25-31.25h1304.063
				c20.406,0,36.948,16.542,36.948,36.947V628.367z"/>
		</g>
		<g>
			<g>
				<path style="fill:#F77D48;" d="M778.124,1197.789c0-28.657,23.231-51.888,51.888-51.888c28.656,0,51.888,23.23,51.888,51.888
					c0,28.656-23.231,51.887-51.888,51.887C801.355,1249.676,778.124,1226.445,778.124,1197.789z"/>
			</g>
			<g>
				<rect x="812.036" y="1175.311" style="fill:#FFFFFF;" width="11.335" height="47.814"/>
			</g>
			<g>
				<rect x="839.132" y="1175.311" style="fill:#FFFFFF;" width="11.334" height="47.814"/>
			</g>
			<g>
				<g>
					<g>
						<path style="fill:#AEC3FF;" d="M1558.662,1205.655H929.434c-4.345,0-7.867-3.521-7.867-7.866l0,0
							c0-4.345,3.523-7.866,7.867-7.866h629.229c4.345,0,7.867,3.521,7.867,7.866l0,0
							C1566.529,1202.134,1563.007,1205.655,1558.662,1205.655z"/>
					</g>
					<g>
						<path style="fill:#F77D48;" d="M1137.758,1205.655H929.434c-4.345,0-7.867-3.521-7.867-7.866l0,0
							c0-4.345,3.523-7.866,7.867-7.866h208.324c4.345,0,7.867,3.521,7.867,7.866l0,0
							C1145.625,1202.134,1142.103,1205.655,1137.758,1205.655z"/>
					</g>
					<g>
						<path style="fill:#F77D48;" d="M1116.543,1197.789c0-10.27,8.325-18.595,18.595-18.595s18.595,8.325,18.595,18.595
							c0,10.269-8.325,18.594-18.595,18.594S1116.543,1208.058,1116.543,1197.789z"/>
					</g>
				</g>
				<g>
					<path style="fill:#739AF0;" d="M956.679,1234.121h-25.364c-3.036,0-5.497-2.462-5.497-5.498l0,0
						c0-3.037,2.461-5.498,5.497-5.498h25.364c3.036,0,5.497,2.461,5.497,5.498l0,0
						C962.176,1231.659,959.715,1234.121,956.679,1234.121z"/>
				</g>
				<g>
					<path style="fill:#739AF0;" d="M1561.031,1234.121h-25.363c-3.036,0-5.498-2.462-5.498-5.498l0,0
						c0-3.037,2.462-5.498,5.498-5.498h25.363c3.036,0,5.498,2.461,5.498,5.498l0,0
						C1566.529,1231.659,1564.067,1234.121,1561.031,1234.121z"/>
				</g>
			</g>
		</g>
		<g>
			<path style="fill:#AEC3FF;" d="M1558.662,1054.091H929.434c-4.345,0-7.867-3.521-7.867-7.866l0,0
				c0-4.345,3.523-7.866,7.867-7.866h629.229c4.345,0,7.867,3.521,7.867,7.866l0,0
				C1566.529,1050.569,1563.007,1054.091,1558.662,1054.091z"/>
		</g>
		<g>
			<path style="fill:#739AF0;" d="M956.679,1082.557h-25.364c-3.036,0-5.497-2.462-5.497-5.498l0,0c0-3.037,2.461-5.498,5.497-5.498
				h25.364c3.036,0,5.497,2.461,5.497,5.498l0,0C962.176,1080.095,959.715,1082.557,956.679,1082.557z"/>
		</g>
		<g>
			<path style="fill:#739AF0;" d="M1561.031,1082.557h-25.363c-3.036,0-5.498-2.462-5.498-5.498l0,0
				c0-3.037,2.462-5.498,5.498-5.498h25.363c3.036,0,5.498,2.461,5.498,5.498l0,0
				C1566.529,1080.095,1564.067,1082.557,1561.031,1082.557z"/>
		</g>
		<g>
			<path style="fill:#AEC3FF;" d="M1558.662,902.526H929.434c-4.345,0-7.867-3.522-7.867-7.867l0,0c0-4.344,3.523-7.865,7.867-7.865
				h629.229c4.345,0,7.867,3.522,7.867,7.865l0,0C1566.529,899.005,1563.007,902.526,1558.662,902.526z"/>
		</g>
		<g>
			<path style="fill:#739AF0;" d="M1132.606,869.507H929.434c-4.345,0-7.867-3.521-7.867-7.866l0,0c0-4.345,3.523-7.866,7.867-7.866
				h203.173c4.345,0,7.866,3.521,7.866,7.866l0,0C1140.473,865.985,1136.951,869.507,1132.606,869.507z"/>
		</g>
		<g>
			<path style="fill:#739AF0;" d="M1132.606,719.875H929.434c-4.345,0-7.867-3.523-7.867-7.867l0,0c0-4.345,3.523-7.866,7.867-7.866
				h203.173c4.345,0,7.866,3.521,7.866,7.866l0,0C1140.473,716.352,1136.951,719.875,1132.606,719.875z"/>
		</g>
		<g>
			<path style="fill:#739AF0;" d="M1132.606,1019.607H929.434c-4.345,0-7.867-3.522-7.867-7.866l0,0
				c0-4.344,3.523-7.866,7.867-7.866h203.173c4.345,0,7.866,3.523,7.866,7.866l0,0
				C1140.473,1016.086,1136.951,1019.607,1132.606,1019.607z"/>
		</g>
		<g>
			<path style="fill:#739AF0;" d="M956.679,930.991h-25.364c-3.036,0-5.497-2.461-5.497-5.497l0,0c0-3.037,2.461-5.498,5.497-5.498
				h25.364c3.036,0,5.497,2.461,5.497,5.498l0,0C962.176,928.53,959.715,930.991,956.679,930.991z"/>
		</g>
		<g>
			<path style="fill:#739AF0;" d="M1561.031,930.991h-25.363c-3.036,0-5.498-2.461-5.498-5.497l0,0c0-3.037,2.462-5.498,5.498-5.498
				h25.363c3.036,0,5.498,2.461,5.498,5.498l0,0C1566.529,928.53,1564.067,930.991,1561.031,930.991z"/>
		</g>
		<g>
			<path style="fill:#AEC3FF;" d="M1558.662,750.962H929.434c-4.345,0-7.867-3.522-7.867-7.866l0,0c0-4.345,3.523-7.866,7.867-7.866
				h629.229c4.345,0,7.867,3.521,7.867,7.866l0,0C1566.529,747.44,1563.007,750.962,1558.662,750.962z"/>
		</g>
		<g>
			<path style="fill:#739AF0;" d="M956.679,779.427h-25.364c-3.036,0-5.497-2.462-5.497-5.497l0,0c0-3.036,2.461-5.498,5.497-5.498
				h25.364c3.036,0,5.497,2.462,5.497,5.498l0,0C962.176,776.965,959.715,779.427,956.679,779.427z"/>
		</g>
		<g>
			<path style="fill:#739AF0;" d="M1561.031,779.427h-25.363c-3.036,0-5.498-2.462-5.498-5.497l0,0c0-3.036,2.462-5.498,5.498-5.498
				h25.363c3.036,0,5.498,2.462,5.498,5.498l0,0C1566.529,776.965,1564.067,779.427,1561.031,779.427z"/>
		</g>
		<g>
			<g>
				<path style="fill:#233862;" d="M772.577,595.754c0,5.56-4.509,10.067-10.067,10.067c-5.56,0-10.068-4.508-10.068-10.067
					c0-5.56,4.509-10.068,10.068-10.068C768.068,585.685,772.577,590.193,772.577,595.754z"/>
			</g>
			<g>
				<path style="fill:#233862;" d="M815.815,595.754c0,5.56-4.507,10.067-10.067,10.067c-5.56,0-10.066-4.508-10.066-10.067
					c0-5.56,4.506-10.068,10.066-10.068C811.309,585.685,815.815,590.193,815.815,595.754z"/>
			</g>
			<g>
				<path style="fill:#233862;" d="M861.689,595.754c0,5.56-4.507,10.067-10.067,10.067c-5.56,0-10.067-4.508-10.067-10.067
					c0-5.56,4.508-10.068,10.067-10.068C857.183,585.685,861.689,590.193,861.689,595.754z"/>
			</g>
		</g>
		<g>
			<g>
				<polygon style="fill:#233862;" points="1454.41,403.582 1526.625,377.609 1526.625,403.582 1454.41,426.956 				"/>
			</g>
			<g>
				<path style="fill:#233862;" d="M1461.033,402.283V508.25c0,0-41.296,12.467-45.191-9.351c-3.896-21.816,38.179-9.35,38.179-9.35
					l0.376-84.345L1461.033,402.283z"/>
			</g>
			<g>
				<path style="fill:#233862;" d="M1526.625,380.985v105.968c0,0-41.296,12.466-45.192-9.351
					c-3.896-21.816,38.179-9.35,38.179-9.35l0.378-84.346L1526.625,380.985z"/>
			</g>
		</g>
		<g>
			<g>
				<polygon style="fill:#739AF0;" points="1684.023,769.192 1762.994,747.59 1760.829,775.213 1682.074,794.054 				"/>
			</g>
			<g>
				<path style="fill:#739AF0;" d="M1691.176,768.363l-8.834,112.704c0,0-44.96,9.816-47.285-13.712
					c-2.325-23.528,41.386-6.762,41.386-6.762l7.432-89.675L1691.176,768.363z"/>
			</g>
			<g>
				<path style="fill:#739AF0;" d="M1762.712,751.18l-8.833,112.704c0,0-44.961,9.817-47.285-13.712
					c-2.325-23.528,41.386-6.762,41.386-6.762l7.432-89.675L1762.712,751.18z"/>
			</g>
		</g>
		<g>
			<g>
				<polygon style="fill:#F77D48;" points="1615.367,485.054 1765.754,444.702 1761.38,497.217 1611.431,532.316 				"/>
			</g>
			<g>
				<path style="fill:#F77D48;" d="M1628.977,483.544L1611.129,697.8c0,0-85.597,18.251-89.799-26.516
					c-4.202-44.768,78.77-12.476,78.77-12.476l14.968-170.476L1628.977,483.544z"/>
			</g>
			<g>
				<path style="fill:#F77D48;" d="M1765.186,451.529l-17.848,214.257c0,0-85.597,18.252-89.8-26.517
					c-4.203-44.767,78.771-12.475,78.771-12.475l14.967-170.476L1765.186,451.529z"/>
			</g>
		</g>
		<g>
			<g>
				<path style="fill:#739AF0;" d="M778.124,743.096c0-28.656,23.231-51.889,51.888-51.889c28.656,0,51.888,23.233,51.888,51.889
					c0,28.656-23.231,51.887-51.888,51.887C801.355,794.982,778.124,771.752,778.124,743.096z"/>
			</g>
			<g>
				<path style="fill:#FFFFFF;" d="M815.821,714.429v56.155c0,2.568,2.952,4.015,4.98,2.442l33.001-25.577
					c2.783-2.156,2.783-6.356,0-8.513l-34.086-26.418C818.13,711.288,815.821,712.42,815.821,714.429z"/>
			</g>
		</g>
		<g>
			<g>
				<path style="fill:#739AF0;" d="M778.124,899.118c0-28.656,23.231-51.886,51.888-51.886c28.656,0,51.888,23.229,51.888,51.886
					c0,28.658-23.231,51.888-51.888,51.888C801.355,951.006,778.124,927.776,778.124,899.118z"/>
			</g>
			<g>
				<path style="fill:#FFFFFF;" d="M815.821,870.451v56.157c0,2.567,2.952,4.014,4.98,2.44l33.001-25.575
					c2.783-2.155,2.783-6.358,0-8.514l-34.086-26.417C818.13,867.313,815.821,868.444,815.821,870.451z"/>
			</g>
		</g>
		<g>
			<g>
				<circle style="fill:#739AF0;" cx="830.012" cy="1050.007" r="51.888"/>
			</g>
			<g>
				<path style="fill:#FFFFFF;" d="M815.821,1021.34v56.156c0,2.567,2.952,4.015,4.98,2.441l33.001-25.576
					c2.783-2.156,2.783-6.358,0-8.514l-34.086-26.418C818.13,1018.2,815.821,1019.331,815.821,1021.34z"/>
			</g>
		</g>
	</g>
	<g id="girl_2_1_">
		<g>
			<path style="fill:#ED7D2B;" d="M1871.669,993.364l3.992-1.43c17.455-6.257,26.631-25.663,20.389-43.125l-7.302-20.429
				c-6.253-17.492-25.676-26.676-43.161-20.407l-3.992,1.431c-17.456,6.256-26.632,25.662-20.39,43.124l7.302,20.429
				C1834.761,990.449,1854.183,999.632,1871.669,993.364z"/>
		</g>
		<g>
			<path style="fill:#163560;" d="M2177.296,1104.873c-8.685,52.894-69.249,74.523-129.526,85.051
				c-81.221,14.184-158.458-71.43-162.001-76.643c-3.544-5.213-18.629-7.938,23.933-50.693
				c60.934-61.199-47.119-96.848-57.206-160.219c0,0-28.661-36.748,4.11-56.889c19.127-11.755,50.965-9.299,54.028-10.241
				c9.738-2.999,19.088-5.201,27.997-6.676c37.718-6.277,67.55,0.338,85.195,14.03c28.735,22.305,20.267,99.869,59.633,98.343
				c39.377-1.525,76.284,13.119,72.402,57.216C2151.98,1042.25,2186.81,1046.898,2177.296,1104.873z"/>
		</g>
		<g>
			<g>
				<path style="fill:#163560;" d="M2156.086,994.697l-5.537-5.152c3.215-16.51,0.202-30.768-11.761-42.082
					c-10.362-9.799-21.862-13.749-35.124-10.392c-31.954,8.095-38.566,1.342-38.837,0.917l-1.955,2.374l0.017-3.754l1.673-3.534
					c0.062,0.089,8.515,9.405,38.546,1.798c14.031-3.56,28.352,0.34,39.291,10.685
					C2154.921,957.398,2159.447,977.431,2156.086,994.697z"/>
			</g>
		</g>
		<g>
			<path style="fill:#ED985F;" d="M1867.529,1079.315c0,0-138.923,62.861-167.439,61.616s-187.665-69.371-187.665-69.371
				l5.378,30.967c0,0,110.15,89.375,157.559,93.8c46.676,4.356,206.275-41.891,221.684-51.655S1912.309,1089.197,1867.529,1079.315z
				"/>
		</g>
		<g>
			<path style="fill:#FFB27D;" d="M1858.628,1144.755c13.797,9.572,31.097,17.466,52.815,22.478
				c81.408,18.809,112.607-49.996,124.324-97.228c-11.102-6.354-21.548-7.753-27.582-8.474c-5.883-0.694-12.071-1.155-17.195-1.409
				c-9.143-7.001-22.764-35.657-25.777-80.15l-3.828,1.026l-64.16,17.562c0,0,2.938,20.396,4.38,39.672
				c1.112,15.085-2.8,24.926-5.657,28.453c-5.006,1.087-3.923,6.37-3.923,6.37s-0.005,0.021-0.032,0.061
				C1891.13,1074.526,1872.518,1105.139,1858.628,1144.755z"/>
		</g>
		<g>
			<path style="fill:#ED985F;" d="M1897.221,998.571c0,0,2.95,20.378,4.378,39.671c36.351-3.64,53.219-38.247,59.786-57.229
				L1897.221,998.571z"/>
		</g>
		<g>
			<path style="fill:#FFB27D;" d="M1886.367,1017.716c0,0,86.279-4.761,82.488-58.445c-3.793-53.685,4.79-90.454-50.458-89.685
				c-55.246,0.77-64.491,22.011-67.584,40.236C1847.721,928.049,1863.826,1017.57,1886.367,1017.716z"/>
		</g>
		<g>
			<path style="fill:#739AF0;" d="M2060.343,1320.173c7.792-39.829,33.196-198.963,7.792-250.17
				c-9.125-18.396-44.926-20.056-84.205-18.442c-12.223,7.893-38.911,36.118-78.851,30.826c-9.205-1.219-9.132-12.63-7.459-18.334
				c0.006-0.019-20.105,0.199-44.429,8.393c-13.159,4.433-50.521,30.254-50.521,30.254s21.834,26.33,49.164,37.89
				c-4.646,41.572,2.264,59.913,45.392,155.936c36.444,81.167-4.916,154.242-4.916,154.242s214.534,172.489,215.73,84.664
				C2108.936,1469.313,2050.385,1371.081,2060.343,1320.173z"/>
		</g>
		<g>
			<path style="fill:#DD6D22;" d="M1881.674,1638.324c-11.667-1.316-22.172-7.703-28.694-17.467
				c-1.035-1.549-2.141-3.215-3.315-4.995c-24.421-36.967-33.923-150.181-88.851-270.792c-13.38-29.362-61.406-34.643-74.5-67.839
				c0,0-32.232-107.586,61.692-110.761c93.924-3.174,251.544,299.356,254.033,331.084
				C2004.451,1528.291,2064.136,1658.914,1881.674,1638.324z"/>
		</g>
		<g>
			<path style="fill:#1A2E4F;" d="M1508.363,1635.852h133.685c0,0,4.998-21.322-3.778-35.832
				c-7.769-12.838-4.791-20.151,0.962-30.771c-6.057,2.479-13.891,4.733-22.516,4.24c-6.661-0.384-13.704-3.406-19.882-6.993
				c-5.753,6.56-30.391,34.481-38.088,40.014C1550.01,1612.786,1511.055,1610.549,1508.363,1635.852z"/>
		</g>
		<g>
			<path style="fill:#4868C1;" d="M2066.849,1123.316c0,0-24.708,72.517-137.546,105.687s-123.364-71.469-32.258-84.331
				C1988.15,1131.811,2066.849,1123.316,2066.849,1123.316z"/>
		</g>
		<g>
			<path style="fill:#ED7D2B;" d="M1683.257,1197.571c-8.05,60.349-39.484,250.827-94.937,343.759
				c-17.878,29.96,45.042,46.755,45.381,46.667c8.439-2.208,22.498-15.662,28.978-21.502
				c45.02-40.572,136.408-155.46,136.408-247.566c0-44.911,0.788-130.683-31.869-152.482
				C1747.106,1153.021,1686.454,1173.603,1683.257,1197.571z"/>
		</g>
		<g>
			<path style="fill:#F99746;" d="M1961.39,1635.852c0,0-4.954-6.896-13.591-19.989c-10.282-15.571-21.658-46.216-35.462-85.498
				c-14.501-41.236-31.702-91.971-53.198-144.757c-6.634-16.293-13.68-32.786-21.173-49.253
				c-13.38-29.362-50.186-25.305-63.279-58.501c0,0-51.095-115.071,42.829-118.246c93.925-3.173,272.4,307.826,282.657,337.947
				C2111.4,1530.526,2166.179,1667.442,1961.39,1635.852z"/>
		</g>
		<g>
			<path style="fill:#2B478B;" d="M1606.497,1635.852h133.685c0,0,4.998-21.322-3.778-35.832
				c-7.77-12.838-4.792-20.151,0.962-30.771c-6.057,2.479-13.891,4.733-22.516,4.24c-6.661-0.384-13.704-3.406-19.881-6.993
				c-5.754,6.56-30.391,34.481-38.089,40.014C1648.144,1612.786,1609.188,1610.549,1606.497,1635.852z"/>
		</g>
		<g>
			<path style="fill:#ED7D2B;" d="M1912.337,1530.364c-14.501-41.236-31.702-91.971-53.198-144.757
				c5.613-39.992,17.725-74.981,38.087-89.083C1897.226,1296.524,1946.627,1449.571,1912.337,1530.364z"/>
		</g>
		<g>
			<path style="fill:#F99746;" d="M1761.293,1193.294c-8.05,60.348-19.387,255.104-74.84,348.036
				c-17.877,29.96,45.043,46.755,45.382,46.667c8.439-2.208,22.498-15.662,28.978-21.502
				c45.02-40.572,136.408-155.46,136.408-247.566c0-44.911-52.706-127.081-85.362-148.881
				C1791.746,1156.623,1764.491,1169.324,1761.293,1193.294z"/>
		</g>
		<g>
			<path style="fill:#FFFFFF;" d="M1870.215,986.842c0,0,8.156-3.225,31.109-1.365c0,0-1.22,8.953-18.147,9.839
				C1873.589,995.817,1870.215,986.842,1870.215,986.842z"/>
		</g>
		<g>
			<g>
				<path style="fill:#254F82;" d="M1609.303,1134.432l-68.313,9.65c-5.637,0.796-10.853-3.129-11.648-8.766l-18.198-128.836
					c-0.798-5.637,3.127-10.852,8.764-11.648l68.313-9.65c5.638-0.796,10.853,3.128,11.649,8.765l18.199,128.836
					C1618.864,1128.42,1614.939,1133.636,1609.303,1134.432z"/>
			</g>
			<g>
				<path style="fill:#163560;" d="M1595.614,1136.365l-68.313,9.65c-5.637,0.796-10.853-3.128-11.648-8.765l-18.199-128.837
					c-0.797-5.637,3.128-10.852,8.765-11.648l68.313-9.648c5.637-0.797,10.852,3.127,11.647,8.764l18.2,128.836
					C1605.175,1130.354,1601.251,1135.569,1595.614,1136.365z"/>
			</g>
			<g>
				<path style="fill:#254F82;" d="M1505.531,1016.055c-0.688-4.883,2.71-9.401,7.594-10.09c4.883-0.69,9.401,2.709,10.092,7.592
					c0.688,4.883-2.71,9.401-7.594,10.091C1510.74,1024.338,1506.222,1020.938,1505.531,1016.055z"/>
			</g>
		</g>
		<g>
			<path style="fill:#FFB27D;" d="M1490.591,1052.538c3.315-9.236,13.728-21.715,18.225-22.604
				c13.694-2.704,13.694,15.329,10.79,26.961c-2.022,8.101-8.58,13.902-12.747,18.102l0,0l2.96,20.959
				C1486.686,1083.242,1486.246,1064.64,1490.591,1052.538z"/>
		</g>
		<g>
			<path style="fill:#163560;" d="M1715.349,1528.048c-20.476,0-38.074-11.479-58.519-24.81
				c-21.17-13.806-45.163-29.454-79.306-38.3c-39.714-10.288-85.019-9.066-138.506,3.739
				c-68.343,16.363-135.253,21.891-193.499,15.979c-59.056-5.991-107.839-23.648-141.078-51.062
				c-17.429-14.374-30.627-31.413-39.227-50.643c-8.982-20.083-12.995-42.686-11.93-67.183l2.047,0.089
				c-2.079,47.774,14.883,86.854,50.413,116.155c32.926,27.156,81.33,44.654,139.981,50.605
				c58.02,5.887,124.692,0.377,192.815-15.934c121.411-29.068,178.053,7.867,219.407,34.836
				c31.511,20.551,54.277,35.397,90.863,14.427c29.408-16.855,40.111-50.945,31.813-101.322
				c-6.985-42.401-26.104-86.268-36.878-108.641c-10.265-21.317-16.545-43.517-18.665-65.982
				c-2.129-22.555,0.532-39.472,8.136-51.72c8.551-13.771,23.297-21.854,45.082-24.709c63.958-8.383,97.422-35.51,97.422-57.975
				c0-9.088-3.816-20.812-8.235-34.387c-7.918-24.324-16.894-51.894-7.958-76.233l1.923,0.706
				c-8.691,23.674,0.167,50.886,7.982,74.895c4.474,13.739,8.337,25.606,8.337,35.02c0,27.235-41.722,52.471-99.205,60.006
				c-39.928,5.232-55.794,28.119-51.444,74.205c2.097,22.223,8.312,44.188,18.471,65.285
				c10.823,22.474,30.027,66.543,37.054,109.197c8.452,51.308-2.587,86.107-32.814,103.432
				C1737.073,1525.037,1725.833,1528.048,1715.349,1528.048z"/>
		</g>
		<g>
			<path style="fill:#163560;" d="M1877.13,1106.55l-0.768-1.899c22.957-9.275,41.655-22.986,55.574-40.752
				c11.138-14.215,19.265-31.051,24.157-50.039c8.338-32.365,4.32-60.079,4.279-60.354l2.025-0.306
				c0.041,0.28,4.119,28.406-4.321,61.171c-4.963,19.265-13.216,36.353-24.528,50.791
				C1919.406,1083.213,1900.424,1097.138,1877.13,1106.55z"/>
		</g>
		<g>
			<path style="fill:#FFB27D;" d="M1573.047,1072.791c4.816-0.926,15.153-4.824,25.617-7.7c-3.125-2.425-6.602-5.407-7.57-8.466
				c-1.866-5.896-3.111-7.795,3.111-5.927c6.225,1.867,27.999,11.854,27.999,11.854s-0.046,0.023-0.056,0.028
				c12.373,3.613,23.771,21.102,23.771,21.102s153.169,53.841,171.597,54.767c28.509,1.431,218.251-68.444,218.251-68.444
				c44.778,9.883,34.732,64.903,19.324,74.667c-15.406,9.765-151.94,59.432-232.857,60.367
				c-40.983,0.475-190.065-95.345-190.065-95.345s-17.425-7.964-31.117-5.476c-13.691,2.49-45.431,0-52.276-11.201
				C1541.929,1081.815,1564.956,1074.347,1573.047,1072.791z"/>
		</g>
		<g>
			<path style="fill:#739AF0;" d="M1938.011,1104.466c0,0,16.97,53.722,75.252,65.946c0,0,96.245-29.652,48.324-95.221
				C2061.587,1075.191,2014.206,1039.986,1938.011,1104.466z"/>
		</g>
		<g>
			<path style="fill:#163560;" d="M1852.494,902.365c0,0,14.864,6.483,38.931-3.247c24.065-9.728,28.653,8.456,28.923,16.706
				c0.638,19.593,17.663,19.265,17.663,19.265l43.192-27.65v-51.204l-71.499-17.922l-59.271,19.971
				C1850.433,858.283,1847.323,885.547,1852.494,902.365z"/>
		</g>
		<g>
			<g>
				<path style="fill:#ED7D2B;" d="M1962.268,902.707l-12.976,1.229c-0.04,0.145-9.534,2.571-9.555,2.817
					c0.492-5.603-10.128-45.716-29.104-71.514c9.738-2.999,19.088-5.201,27.997-6.676
					C1954.843,854.083,1963.711,897.956,1962.268,902.707z"/>
			</g>
		</g>
		<g>
			<g>
				<path style="fill:#ED7D2B;" d="M1972.5,982.657l4.08-1.153c17.844-5.044,28.329-23.775,23.3-41.623l-5.884-20.883
					c-5.037-17.88-23.785-28.373-41.66-23.32l-4.08,1.153c-17.844,5.044-28.329,23.774-23.3,41.624l5.884,20.882
					C1935.878,977.216,1954.625,987.711,1972.5,982.657z"/>
			</g>
			<g>
				<path style="fill:#F99746;" d="M1971.516,959.684l2.033-0.574c8.891-2.514,14.115-11.846,11.609-20.739l-2.932-10.403
					c-2.511-8.908-11.851-14.138-20.757-11.62l-2.033,0.575c-8.892,2.514-14.114,11.846-11.608,20.738l2.932,10.404
					C1953.269,956.974,1962.609,962.201,1971.516,959.684z"/>
			</g>
		</g>
		<g>
			<polygon style="fill:#ED7D2B;" points="1857.16,992.822 1856.264,1001.654 1860.488,1002.423 1862.921,993.59 			"/>
		</g>
		<g>
			<polygon style="fill:#ED7D2B;" points="1958.508,979.972 1958.508,993.719 1962.721,993.719 1965.064,979.972 			"/>
		</g>
	</g>
	<g>
		<path style="fill:#233862;" d="M2553.088,1641.87H324.471c-1.522,0-2.767-1.245-2.767-2.767v-1.548
			c0-1.521,1.245-2.767,2.767-2.767h2228.617c1.522,0,2.768,1.245,2.768,2.767v1.548
			C2555.855,1640.625,2554.61,1641.87,2553.088,1641.87z"/>
	</g>
</g>
</svg>
