<svg width="1000" height="1000" viewBox="0 0 1000 1000" fill="none" xmlns="http://www.w3.org/2000/svg">
<rect width="1000" height="1000" rx="500" fill="url(#paint0_linear_18_449)"/>
<path d="M428.432 176.573L270.981 207.13C265.337 208.214 260.276 211.007 256.642 215.044C253.008 219.081 251.02 224.118 251.009 229.315V473.335C239.522 469.741 227.444 467.913 215.283 467.926C160.291 467.926 115.709 504.291 115.709 549.148C115.709 594.005 160.291 630.37 215.284 630.37C253.077 630.37 290.877 611.87 306.589 580.329C320.244 552.918 314.857 519.966 314.857 490.568V295.497L531.692 250.144C530.947 201.898 481.065 166.359 428.433 176.574L428.432 176.573Z" fill="#8700DF"/>
<path d="M428.355 401.432V662.685C428.351 663.308 428.187 663.921 427.874 664.477C427.562 665.033 427.11 665.516 426.554 665.887C425.998 666.259 425.355 666.509 424.673 666.617C423.992 666.726 423.292 666.691 422.628 666.513C412.873 664.003 402.775 662.733 392.629 662.742C337.635 662.742 293.055 699.107 293.055 743.964C293.055 788.821 337.635 825.186 392.629 825.186C430.422 825.186 468.223 806.686 483.934 775.145C497.588 747.734 492.203 714.781 492.203 685.383V472.895C492.206 471.39 492.775 469.929 493.817 468.752C494.859 467.575 496.313 466.75 497.942 466.413L709.038 422.261C710.125 422.03 711.256 422.024 712.346 422.242C713.436 422.46 714.458 422.897 715.335 423.52C716.211 424.144 716.92 424.937 717.409 425.841C717.898 426.746 718.154 427.738 718.158 428.743V642.711C718.154 643.335 717.99 643.949 717.677 644.505C717.365 645.061 716.913 645.544 716.357 645.915C715.802 646.287 715.158 646.537 714.476 646.646C713.795 646.754 713.095 646.719 712.431 646.542C702.675 644.031 692.578 642.761 682.431 642.769C627.438 642.769 582.857 679.134 582.857 723.991C582.857 768.849 627.438 805.213 682.43 805.213C715.709 805.213 748.8 789.698 767.464 764.315C785.549 739.719 782.014 713.882 782.004 686.091C781.987 636.527 781.987 586.963 782.004 537.4V339.253C781.993 336.262 781.239 333.312 779.798 330.618C778.357 327.924 776.265 325.554 773.675 323.682C771.085 321.811 768.063 320.485 764.83 319.801C761.597 319.118 758.236 319.094 754.992 319.732L448.327 379.247C442.683 380.331 437.622 383.124 433.988 387.161C430.353 391.198 428.365 396.235 428.355 401.432Z" fill="#EFB0BB"/>
<path d="M674.564 428.743C674.56 427.738 674.304 426.746 673.816 425.841C673.327 424.937 672.618 424.144 671.741 423.52C670.864 422.897 669.843 422.46 668.753 422.242C667.662 422.024 666.531 422.03 665.444 422.261L454.349 466.413C452.72 466.75 451.265 467.575 450.223 468.752C449.181 469.929 448.612 471.39 448.609 472.895V685.383C448.609 714.781 453.994 747.734 440.341 775.146C427.645 800.633 400.522 817.597 370.639 823.173C377.875 824.509 385.242 825.183 392.629 825.186C430.422 825.186 468.223 806.686 483.934 775.145C497.588 747.734 492.203 714.781 492.203 685.383V472.895C492.206 471.39 492.775 469.929 493.817 468.752C494.859 467.575 496.313 466.75 497.943 466.413L674.564 429.471V428.743ZM384.717 663.021C380.051 663.318 375.411 663.885 370.826 664.718C373.606 665.228 376.348 665.82 379.035 666.513C379.666 666.681 380.331 666.719 380.982 666.627C381.632 666.534 382.251 666.313 382.795 665.979C383.338 665.644 383.793 665.205 384.125 664.694C384.458 664.182 384.66 663.61 384.717 663.02V663.021ZM782.004 686.091C781.987 636.527 781.987 586.963 782.004 537.4V339.253C781.993 336.262 781.239 333.312 779.798 330.618C778.357 327.924 776.265 325.554 773.675 323.682C771.085 321.811 768.063 320.485 764.83 319.801C761.598 319.118 758.236 319.094 754.992 319.732L730.969 324.395C733.31 326.253 735.185 328.539 736.468 331.101C737.751 333.663 738.413 336.442 738.41 339.253V686.091C738.42 713.881 741.956 739.719 723.87 764.315C708.945 784.173 686.084 798.077 660.053 803.128C667.414 804.512 674.912 805.21 682.431 805.213C715.708 805.213 748.8 789.698 767.464 764.315C785.549 739.719 782.014 713.882 782.004 686.091ZM674.519 643.048C669.853 643.345 665.214 643.913 660.629 644.746C663.408 645.255 666.151 645.848 668.837 646.542C669.469 646.709 670.134 646.748 670.784 646.655C671.434 646.563 672.054 646.341 672.597 646.007C673.141 645.673 673.595 645.234 673.928 644.722C674.26 644.21 674.462 643.638 674.519 643.048Z" fill="#213F7B"/>
<defs>
<linearGradient id="paint0_linear_18_449" x1="500" y1="0" x2="500" y2="1000" gradientUnits="userSpaceOnUse">
<stop stop-color="#E87EF9"/>
<stop offset="1" stop-color="#27FDFD"/>
</linearGradient>
</defs>
</svg>
