<svg width="45" height="49" viewBox="0 0 45 49" fill="none" xmlns="http://www.w3.org/2000/svg">
<path d="M21.857 0.128578L10.8524 2.36334C10.4579 2.44261 10.1042 2.64689 9.85016 2.94213C9.59615 3.23737 9.45721 3.60572 9.45648 3.9858V21.832C8.65357 21.5692 7.80945 21.4355 6.95947 21.4365C3.11594 21.4365 0 24.096 0 27.3766C0 30.6572 3.11594 33.3167 6.95957 33.3167C9.60101 33.3167 12.243 31.9637 13.341 29.657C14.2954 27.6523 13.9189 25.2424 13.9189 23.0924V8.82598L29.0741 5.5091C29.022 1.98072 25.5357 -0.618385 21.8571 0.128674L21.857 0.128578Z" fill="#8700DF"/>
<path d="M19.4565 18.0088V37.1154C19.4562 37.1609 19.4447 37.2058 19.4229 37.2465C19.401 37.2871 19.3694 37.3224 19.3306 37.3496C19.2918 37.3768 19.2468 37.395 19.1991 37.403C19.1515 37.4109 19.1026 37.4083 19.0562 37.3954C18.3744 37.2118 17.6686 37.1189 16.9595 37.1196C13.1158 37.1196 10 39.7791 10 43.0597C10 46.3403 13.1158 48.9998 16.9595 48.9998C19.6009 48.9998 22.2429 47.6468 23.341 45.3401C24.2953 43.3354 23.9189 40.9254 23.9189 38.7754V23.2352C23.9191 23.1251 23.9589 23.0183 24.0318 22.9322C24.1046 22.8462 24.2062 22.7858 24.3201 22.7611L39.0741 19.5321C39.1501 19.5153 39.2291 19.5148 39.3053 19.5308C39.3815 19.5467 39.4529 19.5787 39.5142 19.6242C39.5755 19.6698 39.625 19.7278 39.6592 19.794C39.6933 19.8601 39.7112 19.9327 39.7115 20.0062V35.6546C39.7113 35.7002 39.6998 35.7451 39.6779 35.7858C39.6561 35.8265 39.6245 35.8618 39.5857 35.889C39.5468 35.9161 39.5018 35.9344 39.4542 35.9424C39.4066 35.9503 39.3576 35.9477 39.3112 35.9348C38.6294 35.7511 37.9236 35.6582 37.2145 35.6589C33.3708 35.6589 30.255 38.3183 30.255 41.599C30.255 44.8797 33.3709 47.5391 37.2144 47.5391C39.5404 47.5391 41.8531 46.4044 43.1576 44.548C44.4217 42.7492 44.1746 40.8596 44.1738 38.8272C44.1727 35.2023 44.1727 31.5775 44.1738 27.9527V13.4614C44.1731 13.2427 44.1204 13.0269 44.0197 12.8299C43.919 12.6328 43.7727 12.4595 43.5917 12.3227C43.4107 12.1858 43.1995 12.0888 42.9735 12.0388C42.7476 11.9888 42.5126 11.9871 42.2859 12.0338L20.8524 16.3863C20.4579 16.4656 20.1042 16.6699 19.8502 16.9651C19.5961 17.2604 19.4572 17.6287 19.4565 18.0088Z" fill="#EFB0BB"/>
<path d="M36.2421 20.0062C36.2418 19.9327 36.224 19.8601 36.1898 19.794C36.1556 19.7278 36.1061 19.6698 36.0448 19.6242C35.9835 19.5787 35.9121 19.5467 35.8359 19.5308C35.7597 19.5148 35.6807 19.5153 35.6047 19.5321L20.8507 22.7611C20.7368 22.7858 20.6352 22.8462 20.5624 22.9322C20.4895 23.0183 20.4497 23.1251 20.4495 23.2352V38.7754C20.4495 40.9254 20.8259 43.3354 19.8716 45.3402C18.9843 47.2041 17.0886 48.4448 15 48.8526C15.5058 48.9503 16.0207 48.9996 16.5369 48.9998C19.1784 48.9998 21.8204 47.6468 22.9185 45.3401C23.8728 43.3354 23.4964 40.9254 23.4964 38.7754V23.2352C23.4966 23.1251 23.5364 23.0183 23.6092 22.9322C23.6821 22.8462 23.7837 22.7858 23.8976 22.7611L36.2421 20.0594V20.0062ZM15.9839 37.14C15.6578 37.1617 15.3336 37.2031 15.0131 37.2641C15.2074 37.3014 15.399 37.3447 15.5868 37.3954C15.631 37.4076 15.6774 37.4104 15.7229 37.4037C15.7683 37.3969 15.8116 37.3807 15.8496 37.3563C15.8876 37.3318 15.9194 37.2997 15.9426 37.2623C15.9658 37.2249 15.98 37.1831 15.9839 37.1399V37.14ZM43.7513 38.8272C43.7502 35.2023 43.7502 31.5775 43.7513 27.9527V13.4614C43.7506 13.2427 43.6979 13.0269 43.5972 12.8299C43.4964 12.6328 43.3502 12.4595 43.1692 12.3227C42.9882 12.1858 42.777 12.0888 42.551 12.0388C42.3251 11.9888 42.0901 11.9871 41.8634 12.0338L40.1844 12.3748C40.348 12.5107 40.479 12.6779 40.5687 12.8652C40.6584 13.0526 40.7047 13.2558 40.7045 13.4614V38.8272C40.7052 40.8596 40.9523 42.7492 39.6882 44.548C38.645 46.0004 37.0472 47.0172 35.2279 47.3866C35.7423 47.4878 36.2664 47.5389 36.792 47.5391C39.1177 47.5391 41.4306 46.4044 42.7351 44.548C43.9991 42.7492 43.752 40.8596 43.7513 38.8272V38.8272ZM36.239 35.6792C35.9129 35.701 35.5886 35.7425 35.2681 35.8035C35.4624 35.8407 35.6541 35.884 35.8418 35.9348C35.886 35.947 35.9325 35.9498 35.9779 35.9431C36.0234 35.9363 36.0666 35.9201 36.1046 35.8957C36.1426 35.8712 36.1744 35.8391 36.1976 35.8017C36.2209 35.7643 36.235 35.7224 36.239 35.6792V35.6792Z" fill="#213F7B"/>
</svg>
