<svg width="214" height="54" viewBox="0 0 214 54" fill="none" xmlns="http://www.w3.org/2000/svg">
<path d="M53.6292 41.7227C52.3531 41.7227 51.2008 41.5534 50.1721 41.2148C49.1435 40.8893 48.2581 40.4141 47.5159 39.7891C46.7607 39.1641 46.1812 38.4219 45.7776 37.5625C45.387 36.7031 45.1917 35.7526 45.1917 34.7109C45.1917 33.8385 45.3284 33.0182 45.6018 32.25C45.8883 31.4688 46.2854 30.7917 46.7932 30.2188C47.301 29.6458 47.8935 29.2031 48.5706 28.8906C49.2476 28.5651 49.9638 28.4023 50.719 28.4023C51.6565 28.4023 52.4443 28.6367 53.0823 29.1055C53.7203 29.5742 54.1174 30.2188 54.2737 31.0391C52.8805 31.0391 51.7737 31.4102 50.9534 32.1523C50.5627 32.5039 50.2568 32.9336 50.0354 33.4414C49.8271 33.9492 49.7229 34.5091 49.7229 35.1211C49.7229 36.293 50.0614 37.224 50.7385 37.9141C51.4286 38.5911 52.3531 38.9297 53.512 38.9297C54.2021 38.9297 54.8466 38.806 55.4456 38.5586C56.0445 38.2982 56.5653 37.9466 57.0081 37.5039C57.4508 37.0612 57.7893 36.5339 58.0237 35.9219C58.2711 35.2969 58.3948 34.6328 58.3948 33.9297C58.3948 32.6276 57.9521 31.2734 57.0667 29.8672C56.7151 29.3203 56.3245 28.7865 55.8948 28.2656C55.4781 27.7318 54.8922 27.0286 54.137 26.1562C53.4599 25.375 52.8935 24.6979 52.4377 24.125C51.982 23.5521 51.5719 22.9661 51.2073 22.3672C50.3219 20.9219 49.8792 19.5026 49.8792 18.1094C49.8792 17.0677 50.1005 16.1042 50.5432 15.2188C50.9859 14.3203 51.6174 13.5391 52.4377 12.875C53.2581 12.2109 54.2151 11.6966 55.3088 11.332C56.4026 10.9674 57.581 10.7852 58.844 10.7852C60.9924 10.7852 62.7177 11.293 64.0198 12.3086C64.6448 12.8034 65.12 13.3958 65.4456 14.0859C65.7841 14.776 65.9534 15.5443 65.9534 16.3906C65.9534 17.4974 65.6734 18.4023 65.1135 19.1055C64.8531 19.444 64.5276 19.7044 64.137 19.8867C63.7594 20.069 63.3557 20.1602 62.926 20.1602C61.9234 20.1602 61.1096 19.7435 60.4846 18.9102C60.9924 18.5456 61.3896 18.0638 61.676 17.4648C61.9755 16.8529 62.1252 16.2018 62.1252 15.5117C62.1252 14.6523 61.8713 13.9753 61.3635 13.4805C60.8557 12.9727 60.1591 12.7188 59.2737 12.7188C58.7398 12.7188 58.245 12.8164 57.7893 13.0117C57.3466 13.207 56.969 13.487 56.6565 13.8516C56.331 14.2161 56.0771 14.6458 55.8948 15.1406C55.7255 15.6354 55.6409 16.1758 55.6409 16.7617C55.6409 17.5951 55.8362 18.3958 56.2268 19.1641C56.6174 19.9323 57.1773 20.7331 57.9065 21.5664C58.5575 22.3346 59.2607 23.0964 60.0159 23.8516C61.7737 25.6745 63.0172 27.4518 63.7463 29.1836C64.176 30.2122 64.3909 31.3451 64.3909 32.582C64.3909 33.8841 64.1239 35.0951 63.5901 36.2148C63.0562 37.3216 62.2945 38.2852 61.3049 39.1055C60.3153 39.9388 59.163 40.5833 57.8479 41.0391C56.5328 41.4948 55.1265 41.7227 53.6292 41.7227ZM75.3674 45.5508C74.6383 45.5508 74.0002 45.5182 73.4534 45.4531C72.9065 45.388 72.3922 45.2318 71.9104 44.9844C70.6474 44.3724 70.0159 43.1484 70.0159 41.3125C70.0159 40.4271 70.1526 39.3659 70.426 38.1289C70.7125 36.8919 71.1161 35.5573 71.637 34.125C72.7828 30.974 74.2021 27.9466 75.8948 25.043C74.5667 25.1211 73.512 25.3229 72.7307 25.6484C71.9625 25.9609 71.4547 26.4492 71.2073 27.1133C71.3245 27.1133 71.4417 27.25 71.5588 27.5234C71.676 27.7969 71.7346 28.0768 71.7346 28.3633C71.7346 28.832 71.5198 29.2096 71.0901 29.4961C70.6604 29.7826 70.1265 29.9258 69.4885 29.9258C68.7724 29.9258 68.1864 29.7305 67.7307 29.3398C67.2489 28.9362 67.0081 28.3568 67.0081 27.6016C67.0081 26.9375 67.2099 26.306 67.6135 25.707C68.0172 25.0951 68.5901 24.5677 69.3323 24.125C70.0875 23.6693 70.9599 23.3177 71.9495 23.0703C72.9521 22.8099 74.0263 22.6797 75.1721 22.6797C75.732 22.6797 76.4286 22.7188 77.262 22.7969C79.5015 19.2682 81.7411 16.5013 83.9807 14.4961C86.5849 12.1654 88.9807 11 91.1682 11C92.4703 11 93.525 11.1888 94.3323 11.5664L88.0627 41H82.301L85.3674 26.4883C84.4039 26.0456 83.4989 25.7135 82.6526 25.4922C81.8193 25.2708 80.9403 25.1211 80.0159 25.043C78.5055 28.3112 77.2685 31.651 76.3049 35.0625C75.3153 38.487 74.8206 41.2409 74.8206 43.3242C74.8206 44.3529 75.0028 45.0951 75.3674 45.5508ZM88.0627 13.832C86.9039 14.457 85.6864 15.6354 84.4104 17.3672C83.1604 19.0859 81.9755 21.0716 80.8557 23.3242C82.6786 23.6758 84.3062 24.138 85.7385 24.7109L88.0627 13.832ZM106.207 13.5195C104.176 14.1966 102.607 15.3034 101.5 16.8398C100.406 18.3633 99.8596 20.2578 99.8596 22.5234C99.8596 23.3828 99.9508 24.0599 100.133 24.5547C100.172 24.6979 100.237 24.8411 100.328 24.9844C100.38 25.0755 100.406 25.1732 100.406 25.2773C99.0523 25.2773 98.0172 25.0039 97.301 24.457C96.5198 23.8581 96.1292 22.9206 96.1292 21.6445C96.1292 20.8112 96.2984 19.9648 96.637 19.1055C96.9755 18.2461 97.4573 17.4128 98.0823 16.6055C98.6943 15.8242 99.4039 15.0951 100.211 14.418C101.031 13.7279 101.917 13.1289 102.867 12.6211C103.818 12.1003 104.801 11.7031 105.817 11.4297C106.845 11.1432 107.861 11 108.864 11C109.853 11 110.862 11.1888 111.891 11.5664L110.973 32.6406L119.781 11.5664H125.543L121.344 41H115.582L118.141 23.0312L110.621 41H105.133L105.934 22.9531L99.2542 41H96.051L106.207 13.5195ZM133.571 45.5508C132.841 45.5508 132.203 45.5182 131.656 45.4531C131.11 45.388 130.595 45.2318 130.114 44.9844C128.851 44.3724 128.219 43.1484 128.219 41.3125C128.219 40.4271 128.356 39.3659 128.629 38.1289C128.916 36.8919 129.319 35.5573 129.84 34.125C130.986 30.974 132.405 27.9466 134.098 25.043C132.77 25.1211 131.715 25.3229 130.934 25.6484C130.166 25.9609 129.658 26.4492 129.41 27.1133C129.528 27.1133 129.645 27.25 129.762 27.5234C129.879 27.7969 129.938 28.0768 129.938 28.3633C129.938 28.832 129.723 29.2096 129.293 29.4961C128.864 29.7826 128.33 29.9258 127.692 29.9258C126.976 29.9258 126.39 29.7305 125.934 29.3398C125.452 28.9362 125.211 28.3568 125.211 27.6016C125.211 26.9375 125.413 26.306 125.817 25.707C126.22 25.0951 126.793 24.5677 127.535 24.125C128.291 23.6693 129.163 23.3177 130.153 23.0703C131.155 22.8099 132.229 22.6797 133.375 22.6797C133.935 22.6797 134.632 22.7188 135.465 22.7969C137.705 19.2682 139.944 16.5013 142.184 14.4961C144.788 12.1654 147.184 11 149.371 11C150.673 11 151.728 11.1888 152.535 11.5664L146.266 41H140.504L143.571 26.4883C142.607 26.0456 141.702 25.7135 140.856 25.4922C140.022 25.2708 139.143 25.1211 138.219 25.043C136.709 28.3112 135.472 31.651 134.508 35.0625C133.518 38.487 133.024 41.2409 133.024 43.3242C133.024 44.3529 133.206 45.0951 133.571 45.5508ZM146.266 13.832C145.107 14.457 143.89 15.6354 142.614 17.3672C141.364 19.0859 140.179 21.0716 139.059 23.3242C140.882 23.6758 142.509 24.138 143.942 24.7109L146.266 13.832ZM160.289 45.5508C159.56 45.5508 158.922 45.5182 158.375 45.4531C157.828 45.388 157.314 45.2318 156.832 44.9844C155.569 44.3724 154.938 43.1484 154.938 41.3125C154.938 40.4271 155.074 39.3659 155.348 38.1289C155.634 36.8919 156.038 35.5573 156.559 34.125C157.705 30.974 159.124 27.9466 160.817 25.043C159.489 25.1211 158.434 25.3229 157.653 25.6484C156.884 25.9609 156.377 26.4492 156.129 27.1133C156.246 27.1133 156.364 27.25 156.481 27.5234C156.598 27.7969 156.656 28.0768 156.656 28.3633C156.656 28.832 156.442 29.2096 156.012 29.4961C155.582 29.7826 155.048 29.9258 154.41 29.9258C153.694 29.9258 153.108 29.7305 152.653 29.3398C152.171 28.9362 151.93 28.3568 151.93 27.6016C151.93 26.9375 152.132 26.306 152.535 25.707C152.939 25.0951 153.512 24.5677 154.254 24.125C155.009 23.6693 155.882 23.3177 156.871 23.0703C157.874 22.8099 158.948 22.6797 160.094 22.6797C160.654 22.6797 161.351 22.7188 162.184 22.7969C164.423 19.2682 166.663 16.5013 168.903 14.4961C171.507 12.1654 173.903 11 176.09 11C177.392 11 178.447 11.1888 179.254 11.5664L172.985 41H167.223L170.289 26.4883C169.326 26.0456 168.421 25.7135 167.574 25.4922C166.741 25.2708 165.862 25.1211 164.938 25.043C163.427 28.3112 162.19 31.651 161.227 35.0625C160.237 38.487 159.742 41.2409 159.742 43.3242C159.742 44.3529 159.925 45.0951 160.289 45.5508ZM172.985 13.832C171.826 14.457 170.608 15.6354 169.332 17.3672C168.082 19.0859 166.897 21.0716 165.778 23.3242C167.601 23.6758 169.228 24.138 170.66 24.7109L172.985 13.832Z" fill="#213F7B"/>
<path d="M17.0048 10.6045L9.38622 12.2008C9.11312 12.2574 8.86824 12.4033 8.69239 12.6142C8.51654 12.8251 8.42034 13.0882 8.41984 13.3597V26.107C7.86398 25.9193 7.27959 25.8238 6.69114 25.8245C4.03023 25.8245 1.87305 27.7241 1.87305 30.0674C1.87305 32.4107 4.03023 34.3103 6.69121 34.3103C8.5199 34.3103 10.3489 33.3439 11.1092 31.6963C11.7699 30.2644 11.5092 28.543 11.5092 27.0072V16.817L22.0013 14.4478C21.9652 11.9275 19.5516 10.071 17.0049 10.6046L17.0048 10.6045Z" fill="#8700DF"/>
<path d="M17.0009 22.3508V35.9984C17.0007 36.0309 16.9927 36.063 16.9776 36.092C16.9625 36.1211 16.9406 36.1463 16.9137 36.1657C16.8869 36.1851 16.8557 36.1982 16.8227 36.2038C16.7898 36.2095 16.7559 36.2076 16.7238 36.1984C16.2517 36.0672 15.7631 36.0009 15.2722 36.0014C12.6112 36.0014 10.4541 37.901 10.4541 40.2443C10.4541 42.5876 12.6112 44.4872 15.2722 44.4872C17.1009 44.4872 18.93 43.5209 19.6902 41.8732C20.3509 40.4413 20.0903 38.7198 20.0903 37.1841V26.084C20.0904 26.0054 20.118 25.9291 20.1684 25.8676C20.2188 25.8061 20.2892 25.763 20.368 25.7454L30.5823 23.4389C30.6349 23.4269 30.6896 23.4266 30.7424 23.438C30.7952 23.4494 30.8446 23.4722 30.887 23.5047C30.9294 23.5373 30.9637 23.5787 30.9874 23.626C31.011 23.6732 31.0234 23.725 31.0236 23.7776V34.955C31.0234 34.9876 31.0155 35.0196 31.0003 35.0487C30.9852 35.0777 30.9634 35.103 30.9365 35.1224C30.9096 35.1418 30.8784 35.1548 30.8455 35.1605C30.8125 35.1662 30.7786 35.1643 30.7465 35.1551C30.2745 35.0239 29.7858 34.9576 29.2949 34.958C26.6339 34.958 24.4768 36.8577 24.4768 39.2009C24.4768 41.5443 26.6339 43.4439 29.2948 43.4439C30.9051 43.4439 32.5063 42.6334 33.4094 41.3074C34.2845 40.0226 34.1134 38.6729 34.1129 37.2211C34.1121 34.6319 34.1121 32.0428 34.1129 29.4537V19.1027C34.1124 18.9465 34.0759 18.7923 34.0062 18.6516C33.9365 18.5109 33.8352 18.3871 33.7099 18.2893C33.5846 18.1915 33.4384 18.1223 33.2819 18.0866C33.1255 18.0509 32.9629 18.0496 32.8059 18.083L17.9673 21.1919C17.6942 21.2486 17.4493 21.3945 17.2734 21.6054C17.0976 21.8162 17.0014 22.0794 17.0009 22.3508V22.3508Z" fill="#EFB0BB"/>
<path d="M28.9143 23.7776C28.9141 23.725 28.9018 23.6732 28.8781 23.626C28.8545 23.5787 28.8201 23.5373 28.7777 23.5047C28.7353 23.4722 28.6859 23.4494 28.6331 23.438C28.5804 23.4266 28.5256 23.4269 28.473 23.4389L18.2587 25.7454C18.1799 25.763 18.1095 25.8061 18.0591 25.8676C18.0087 25.9291 17.9812 26.0054 17.981 26.084V37.1841C17.981 38.7198 18.2416 40.4413 17.5809 41.8733C16.9666 43.2046 15.6542 44.0908 14.2083 44.3821C14.5584 44.4519 14.9149 44.4871 15.2723 44.4872C17.101 44.4872 18.9301 43.5209 19.6903 41.8732C20.351 40.4413 20.0904 38.7198 20.0904 37.1841V26.084C20.0905 26.0054 20.1181 25.9291 20.1685 25.8676C20.2189 25.8061 20.2893 25.763 20.3681 25.7454L28.9143 23.8156V23.7776ZM14.8894 36.0159C14.6637 36.0315 14.4392 36.0611 14.2173 36.1046C14.3518 36.1313 14.4845 36.1622 14.6145 36.1984C14.6451 36.2071 14.6773 36.2092 14.7087 36.2043C14.7402 36.1995 14.7701 36.1879 14.7965 36.1705C14.8228 36.153 14.8447 36.1301 14.8608 36.1033C14.8769 36.0766 14.8867 36.0467 14.8894 36.0159V36.0159ZM34.113 37.2211C34.1122 34.6319 34.1122 32.0428 34.113 29.4537V19.1027C34.1125 18.9465 34.076 18.7923 34.0063 18.6516C33.9366 18.5109 33.8353 18.3871 33.71 18.2893C33.5847 18.1915 33.4385 18.1223 33.282 18.0866C33.1256 18.0509 32.963 18.0496 32.806 18.083L31.6436 18.3265C31.7569 18.4236 31.8476 18.543 31.9097 18.6769C31.9717 18.8107 32.0038 18.9559 32.0036 19.1027V37.2211C32.0041 38.6728 32.1752 40.0226 31.3001 41.3074C30.5779 42.3448 29.4717 43.0711 28.2122 43.335C28.5683 43.4073 28.9312 43.4437 29.295 43.4439C30.9051 43.4439 32.5064 42.6334 33.4095 41.3074C34.2846 40.0226 34.1135 38.6729 34.113 37.2211V37.2211ZM28.9121 34.9726C28.6864 34.9881 28.4619 35.0178 28.24 35.0613C28.3745 35.0879 28.5072 35.1189 28.6372 35.1551C28.6678 35.1638 28.7 35.1659 28.7314 35.161C28.7629 35.1562 28.7929 35.1446 28.8192 35.1272C28.8455 35.1097 28.8675 35.0868 28.8835 35.06C28.8996 35.0333 28.9094 35.0034 28.9121 34.9726V34.9726Z" fill="#213F7B"/>
</svg>
